<svg xmlns="http://www.w3.org/2000/svg" xmlns:xlink="http://www.w3.org/1999/xlink" version="1.1" preserveAspectRatio="none" viewBox="0 0 800 600" width="1600" height="1200" style="background:#000000;">
      <path transform="translate(0, 0)" fill="#ffffff" fill-rule="evenodd" d="M444.0245906585,145.4150851182L443.22368061400005,144.95249052350002L443.08559267530006,144.87308995880002L400.23690529600003,120.13636183950003L400.00215580020006,120.00000000000003L356.5010029105,145.1164699507L355.5533744312,145.6636434078L310.91817434489997,171.4343049681L310.44867535329996,171.70530254780002L310.44867535329996,172.2472977072L310.44867535329996,230.7258136484L310.44867535329996,231.7873646772L310.44867535329996,275.1159076435L353.3474196104,299.883705549L354.28814369279996,300.42570070840003L399.53438290789995,326.5484865124L400.00388189939997,326.8194840921L400.473380891,326.5484865124L445.46070522099996,300.57414524250004L445.46070522099996,276.16364987840007L445.46070522099996,300.5741452425001L446.69141397469997,299.8647184574001L447.63213805709995,299.3227232980001L489.32433894979994,275.2505433838001L489.5590884455999,275.1141815443001L489.5590884455999,231.03305931210008L489.5590884455999,229.96978218400008L489.5590884455999,171.7053025478ZM353.3456935112,298.797989131L311.38767333650003,274.5721863849L311.38767333650003,232.2810290581L353.3456935112,254.30778138029999ZM353.9964329223,196.3073949269L353.3456935112,195.9311052939L334.4224676113,185.0048971441L311.8554462288,171.9763001275L356.5061812082,146.1970080711L399.2927290151,170.15181323739998L354.2864175936,196.1399633012ZM399.5309307094,277.2010355179L399.254754832,277.3460278536L357.2069774971,255.27267085199998L354.28469149430003,253.7381686332L354.28469149430003,197.5588168714L399.5309307094,223.6816026754ZM446.6879617762,252.6472739174L400.4716547918,277.09574346470004L400.4716547918,223.6816026754L446.6879617762,196.9995607196ZM446.9537810582,195.7602214698L446.6879617762,195.6117769357L401.19661647,170.141456642L443.08559267529995,145.9588063768L488.14713927239995,171.9780262268L447.6304119578999,195.3718491422ZM488.6166382639,274.5739124841L447.62868585859997,298.2387329792L447.62868585859997,253.21516056529998L488.6166382639,231.53190199059998ZM320.8243071122,376.9416085284L326.45022416,446.9652557692L307.4101988488,446.9652557692L306.8696303068,425.7529457616L305.6783774088,408.1043839195L304.3770086967,408.1043839195L293.1151640725,440.358306923L276.7779814711,440.358306923L267.4681899152,408.1043839195L266.166821203,408.1043839195L264.6552313913,423.6907768793L263.5740943073,446.9652557692L245.4950797374,446.9652557692L252.3122496832,376.9416085284L277.3185500131,376.9416085284L279.3707083668,386.8920739119L285.5472044851,412.3288269696L286.8385626687,412.3288269696L293.6557326145,387.652874082L296.1483542246,376.9416085284ZM334.5734877874,446.9652557692L335.5445090572,426.4036301176L334.7937194156,397.0727814521L355.785797795,395.6612969259L354.8147765252,424.2313454213L355.6756819809,446.9652557692ZM345.6151007833,368.1723855144L347.86121312781256,368.3413131837625L349.84454909775,368.84809619185L351.5651086931125,369.6927345386625L353.0228919139,370.8752282242L354.1834875682125,372.36241737262503L355.01248446415,374.1211421081L355.50988260171243,376.151402430625L355.6756819809,378.4531983402L355.49298983477496,380.9157883646625L354.94491339639995,383.10809411815L354.03145266577496,385.0301156006625L352.7526076429,386.6818528122L351.1559283384125,388.004493897525L349.28896476294994,388.9492375299L347.15171691651244,389.516083709325L344.7441847991,389.7050324358L342.404849407425,389.53985871464374L340.3620759242,389.044337551175L338.615864349425,388.21846894539374L337.1662146831,387.0622528973L336.0318966662312,385.5900795417188L335.221669511325,383.82634954197505L334.7355332183812,381.7710628980688L334.5734877874,379.42421961L334.7593082237,376.9622552435688L335.3167695326,374.77182646417504L336.2458717141001,372.85293327181876L337.5466147682,371.2055756665L339.1695717101312,369.8785549749563L341.055305026625,368.930683052425L343.2038147176812,368.36195989890626ZM386.5242068596,370.9853440383L385.5531855898,424.2313454213L386.4140910455,446.9652557692L365.311896852,446.9652557692L366.2829181218,426.4036301176L365.5321284802,372.3968285645ZM419.0983066084,394.580159842L423.79449581666245,394.83355134604375L427.92258752944997,395.593725858175L431.48258174676255,396.8606833783938L434.4744784686,398.6344239067L435.74143598879533,399.7053940475438L436.83946583963126,400.88616717347503L437.76856802110785,402.1767432844938L438.528742533225,403.57712238060003L439.11998937598287,405.0873044617938L439.54230854938123,406.707289528075L439.7957000534203,408.4370775794438L439.8801638881,410.2766686159L439.87343806422814,410.9289171170406L439.8532605926125,411.8045255365625L439.81963147325314,412.9034938744656L439.77255070615,414.22582213075L439.71201829130314,415.77151030541563L439.6380342287125,417.5405583984625L439.55059851837814,419.5329664098906L439.4497111603,421.7487343397L439.3488238021984,423.6924974389156L439.26138809184374,425.4094595005625L439.1874040292359,426.8996205246406L439.126871614375,428.16298051115L439.0797908472609,429.19953946009065L439.0461617278937,430.00929737146254L439.02598425627343,430.5922542452657L439.0192584324,430.9484100815L439.114358453675,431.9769918905L439.3996585175,432.6802315215L439.87265599172497,433.085657928L440.5308482442,433.2208000635L441.371732642825,433.1382132029L442.3727854983,432.8904526211L443.6741542104,433.9816002336L441.8322169563,444.8029816013L439.70185134824374,446.06055425100004L437.314965945975,447.0203136762L434.6715607494938,447.6822598769L431.7716357588,448.0463928531L430.2444044961563,447.82866385703755L428.806016674425,447.39570849705L427.4564722936063,446.7475267731375L426.1957713537,445.8841186853L425.0464375440313,444.8067355495813L424.041005082325,443.52663921062504L423.1794739685813,442.0438296684313L422.4618442028,440.358306923L421.7010440326,440.358306923L419.2378283501187,442.917873942875L416.61319289467497,445.0707632402L413.82713766626875,446.816974814975L410.8796626649,448.1565086672L406.9718025803375,447.8274125409625L403.47687679865,446.95023997634996L400.3948853198375,445.5249909733625L397.7258281439,443.551665532L395.5710618725062,441.1022143262687L394.03194310722495,438.238577501575L393.1084718480562,434.96075505791873L392.800648095,431.2687469953L392.9952277437828,428.4262261292531L393.5789666901312,425.90498066401244L394.55186493404534,423.70501059957815L395.913922475525,421.82631593595L397.6651393145703,420.2688966731281L399.80551545118124,419.03275281111246L402.3350508853579,418.1178843499032L405.2537456171,417.5242912895L420.6199069487,415.4721329358L420.6199069487,414.1707642237L420.54858193275004,412.86564156336874L420.33460688490004,411.763232106275L419.97798180514997,410.8635358524187L419.4787066935,410.1665528018L418.808001280325,409.645379658925L417.9270747675,409.2731131283L416.83592715502505,409.04975320992503L415.5345584429,408.9752999038L412.27863403045626,409.30001642379375L408.577241097325,410.27416598377505L404.43037964350617,411.8977485837438L399.838049669,414.1707642237L398.5366809569,413.2998482394L396.2642909749,399.9958557901L401.50480267335,397.69343422252496L407.2558513281,395.9916443682L413.219623714625,394.93303097355ZM420.6199069487,424.6718086777L414.453421359,425.5327141334L413.13703685400003,425.9281300113L412.2310840198,426.6739143886L411.7055312707,427.8226225403L411.530347021,429.4268097412L411.78061023486873,431.3231792442875L412.531399876475,432.67772888934996L413.7827159458187,433.49045867638745L415.5345584429,433.7613686054L416.8246653104,433.6531297654L418.1022590172,433.32841324540004L419.3673395633,432.7872190454001L420.6199069487,432.0295471654ZM473.5399254798,394.580159842L478.23611468806246,394.83355134604375L482.36420640085,395.593725858175L485.92420061816256,396.8606833783938L488.91609734,398.6344239067L490.18305486019534,399.7053940475438L491.28108471103127,400.88616717347503L492.21018689250786,402.1767432844938L492.970361404625,403.57712238060003L493.5616082473829,405.0873044617938L493.98392742078124,406.707289528075L494.23731892482033,408.4370775794438L494.3217827595,410.2766686159L494.31505693562815,410.9289171170406L494.2948794640125,411.8045255365625L494.26125034465315,412.9034938744656L494.21416957755,414.22582213075L494.15363716270315,415.77151030541563L494.0796531001125,417.5405583984625L493.99221738977815,419.5329664098906L493.8913300317,421.7487343397L493.7904426735984,423.6924974389156L493.70300696324375,425.4094595005625L493.6290229006359,426.8996205246406L493.568490485775,428.16298051115L493.5214097186609,429.19953946009065L493.4877805992937,430.00929737146254L493.4676031276734,430.5922542452657L493.4608773038,430.9484100815L493.555977325075,431.9769918905L493.8412773889,432.6802315215L494.314274863125,433.085657928L494.9724671156,433.2208000635L495.813351514225,433.1382132029L496.8144043697,432.8904526211L498.1157730818,433.9816002336L496.2738358277,444.8029816013L494.14347021964375,446.06055425100004L491.756584817375,447.0203136762L489.1131796208938,447.6822598769L486.2132546302,448.0463928531L484.6860233675563,447.82866385703755L483.247635545825,447.39570849705L481.89809116500624,446.7475267731375L480.6373902251,445.8841186853L479.48805641543123,444.8067355495813L478.482623953725,443.52663921062504L477.62109283998126,442.0438296684313L476.9034630742,440.358306923L476.142662904,440.358306923L473.6794472215187,442.917873942875L471.054811766075,445.0707632402L468.2687565376687,446.816974814975L465.3212815363,448.1565086672L461.4134214517375,447.8274125409625L457.91849567005,446.95023997634996L454.8365041912375,445.5249909733625L452.1674470153,443.551665532L450.01268074390623,441.1022143262687L448.47356197862496,438.238577501575L447.5500907194562,434.96075505791873L447.2422669664,431.2687469953L447.4368466151828,428.4262261292531L448.0205855615312,425.90498066401244L448.99348380544535,423.70501059957815L450.355541346925,421.82631593595L452.1067581859703,420.2688966731281L454.24713432258125,419.03275281111246L456.7766697567579,418.1178843499032L459.6953644885,417.5242912895L475.0615258201,415.4721329358L475.0615258201,414.1707642237L474.99020080414994,412.86564156336874L474.7762257563,411.763232106275L474.41960067655,410.8635358524187L473.9203255649,410.1665528018L473.249620151725,409.645379658925L472.3686936389,409.2731131283L471.27754602642506,409.04975320992503L469.9761773143,408.9752999038L466.72025290185627,409.30001642379375L463.018859968725,410.27416598377505L458.8719985149062,411.8977485837438L454.2796685404,414.1707642237L452.9782998283,413.2998482394L450.7059098463,399.9958557901L455.94642154475,397.69343422252496L461.6974701995,395.9916443682L467.661242586025,394.93303097355ZM475.0615258201,424.6718086777L468.8950402304,425.5327141334L467.57865572540004,425.9281300113L466.6727028912,426.6739143886L466.14715014210003,427.8226225403L465.9719658924,429.4268097412L466.22222910626874,431.3231792442875L466.973018747875,432.67772888934996L468.22433481721873,433.49045867638745L469.9761773143,433.7613686054L471.2662841818,433.6531297654L472.54387788860004,433.32841324540004L473.8089584347,432.7872190454001L475.0615258201,432.0295471654ZM535.6696302813,395.1207283839L537.9859727401594,395.2239619596219L540.1699885246875,395.53366268678747L542.2216776348844,396.04983056539686L544.14104007075,396.77246559545L545.9280758322844,397.7015677769469L547.5827849194875,398.8371371098875L549.1051673323594,400.1791735942719L550.4952230709,401.7276772301L551.7387184148296,403.45824735400777L552.8164143795686,405.3514885669312L553.7283109651171,407.40740086887024L554.474408171475,409.6259842598249L555.0547059986421,412.00723873979524L555.4692044466187,414.5511643087812L555.7179035154046,417.2577609667828L555.800803205,420.1270287138L555.693502852053,423.386081416414L555.3716017932124,426.4561853925562L554.835100028478,429.33734064222654L554.0839975578499,432.029547165425L553.118294381328,434.53280496215154L551.9379904989125,436.84711403240624L550.543085910603,438.9724743761891L548.9335806164,440.9088859935L547.1273058702814,442.63335595157815L545.147098190525,444.1278965819125L542.9929575771313,445.3925078845032L540.6648840301,446.42718985935005L538.1628775494313,447.23194250645315L535.486938135125,447.8067658258125L532.6370657871813,448.15165981742814L529.6132605056,448.2666244813L527.363394212925,448.184037620725L524.9583647277,447.936277039L525.3888174555,466.9863128788L504.3867285476,466.9863128788L505.2576445318,426.4036301176L504.4968443617,397.0727814521L524.5279119998,395.6612969259L524.5279119998,403.2392670419L525.2787016414,403.2392670419L527.6324271678562,400.70097239520004L530.148823783325,398.5017844033L532.8278914878063,396.64170306619997ZM528.4220076076,435.2729584172L530.2852172348562,435.0971485094563L531.8706346947249,434.56971878622505L533.1782599872063,433.6906692475063L534.2080931123,432.4599998933L534.9920426297438,430.84392518973124L535.552006570775,428.808659602925L535.8879849353937,426.35420313288125L535.9999777236,423.4805557796L535.8917388835999,420.6507044887687L535.5670223636,418.22753092047503L535.0258281636,416.2110350747188L534.2681562836,414.6012169515L533.2733600084624,413.3705475972937L532.02079262305,412.49149805857496L530.5104541273626,411.9640683353437L528.7423445214,411.7882584276L526.49748349295,412.11360060565L524.5279119998,413.0896271398L524.5279119998,424.2313454213L524.7381330994,434.7323898752L526.7402388104,435.1378162817Z"></path></svg>