<svg xmlns="http://www.w3.org/2000/svg" xmlns:xlink="http://www.w3.org/1999/xlink" class="svg-canvas" viewBox="230.13282183364 53.538681980256 339.74212013163 339.74212013163" width="1600" height="1600" preserveAspectRatio="none" version="1.1" style="background-color:#ffffff"><!--滤镜--><defs></defs><!-- 背景 --><g id="background"><rect x="0" y="0" fill="#FFFFFF" width="800" height="600"></rect></g><!--元素--><g id="shape_WzMi96IFwA" ref="shape_WzMi96IFwA" key="shape_WzMi96IFwA" mask=""><g transform="translate(310.44867535330707,119.99999999999997) rotate(0,89.555206546144,103.40974204606933) scale(1,1)" style="opacity: 1;mix-blend-mode: undefined;" filter=""><!--普通元素--><svg xmlns="http://www.w3.org/2000/svg" xmlns:xlink="http://www.w3.org/1999/xlink" id="图层_1" style="enable-background:new 0 0 200 200;" viewBox="54.405 36.521 103.766 119.819" x="0px" y="0px" width="179.110413092288" height="206.81948409213865" xml:space="preserve" version="1.1" class="style-removed" preserveAspectRatio="none" data-parent="shape_WzMi96IFwA">
<path d="M 131.791 51.245 l -0.464 -0.268 l -0.08 -0.046 h 0 h 0 l -24.824 -14.331 l -0.136 -0.079 L 81.085 51.072 h 0 l -0.549 0.317 l -25.859 14.93 l -0.272 0.157 v 0.314 v 33.879 v 0.615 v 0 v 25.102 l 24.853 14.349 l 0.545 0.314 l 26.213 15.134 l 0.272 0.157 l 0.272 -0.157 l 26.063 -15.048 v -14.142 h 0 l 0 14.142 l 0.713 -0.411 l 0.545 -0.314 l 24.154 -13.946 l 0.136 -0.079 v -25.538 v -0.616 V 66.476 L 131.791 51.245 Z M 79.257 140.106 l -24.308 -14.035 V 101.57 l 24.308 12.761 V 140.106 Z M 79.634 80.729 l -0.377 -0.218 l -10.963 -6.33 l -13.074 -7.548 l 25.868 -14.935 l 24.788 13.878 L 79.802 80.632 L 79.634 80.729 Z M 106.014 127.594 l -0.16 0.084 l -24.36 -12.788 l -1.693 -0.889 V 81.454 l 26.213 15.134 V 127.594 Z M 133.334 113.369 l -26.775 14.164 V 96.588 l 26.775 -15.458 V 113.369 Z M 133.488 80.412 l -0.154 -0.086 L 106.979 65.57 l 24.268 -14.01 l 26.106 15.074 l -23.473 13.553 L 133.488 80.412 Z M 157.625 126.072 l -23.746 13.71 v -26.084 l 23.746 -12.562 V 126.072 Z" fill="#000000" stroke-width="0"></path>
</svg></g></g></svg>