<svg class="svg-canvas" viewBox="0 0 800 600" width="1600" height="1200" preserveAspectRatio="none" version="1.1" xmlns="http://www.w3.org/2000/svg" xmlns:xlink="http://www.w3.org/1999/xlink">
      <!--滤镜-->
      <defs></defs>
    
      <!-- 背景 -->
      <g id="background">
          <rect x="0" y="0" fill="#FFFFFF" width="800" height="600"></rect>
          
        </g>
    
      <!--元素-->
      
              <g id="shape_WzMi96IFwA" ref="shape_WzMi96IFwA" key="shape_WzMi96IFwA" mask="">
                <g transform="translate(310.44867535330707,119.99999999999997) rotate(0,89.555206546144,103.40974204606933) scale(1,1)" style="opacity: 1;mix-blend-mode: undefined;" filter="">
                  <!--普通元素-->
                  <svg xmlns="http://www.w3.org/2000/svg" id="图层_1" style="enable-background:new 0 0 200 200;" viewBox="54.405 36.521 103.766 119.819" x="0px" y="0px" width="179.110413092288" height="206.81948409213865" xmlns:xml="http://www.w3.org/XML/1998/namespace" xml:space="preserve" xmlns:xlink="http://www.w3.org/1999/xlink" version="1.1" class="style-removed" preserveAspectRatio="none" data-parent="shape_WzMi96IFwA">
<path d="M 131.791 51.245 l -0.464 -0.268 l -0.08 -0.046 h 0 h 0 l -24.824 -14.331 l -0.136 -0.079 L 81.085 51.072 h 0 l -0.549 0.317 l -25.859 14.93 l -0.272 0.157 v 0.314 v 33.879 v 0.615 v 0 v 25.102 l 24.853 14.349 l 0.545 0.314 l 26.213 15.134 l 0.272 0.157 l 0.272 -0.157 l 26.063 -15.048 v -14.142 h 0 l 0 14.142 l 0.713 -0.411 l 0.545 -0.314 l 24.154 -13.946 l 0.136 -0.079 v -25.538 v -0.616 V 66.476 L 131.791 51.245 Z M 79.257 140.106 l -24.308 -14.035 V 101.57 l 24.308 12.761 V 140.106 Z M 79.634 80.729 l -0.377 -0.218 l -10.963 -6.33 l -13.074 -7.548 l 25.868 -14.935 l 24.788 13.878 L 79.802 80.632 L 79.634 80.729 Z M 106.014 127.594 l -0.16 0.084 l -24.36 -12.788 l -1.693 -0.889 V 81.454 l 26.213 15.134 V 127.594 Z M 133.334 113.369 l -26.775 14.164 V 96.588 l 26.775 -15.458 V 113.369 Z M 133.488 80.412 l -0.154 -0.086 L 106.979 65.57 l 24.268 -14.01 l 26.106 15.074 l -23.473 13.553 L 133.488 80.412 Z M 157.625 126.072 l -23.746 13.71 v -26.084 l 23.746 -12.562 V 126.072 Z" fill="#000000" stroke-width="0"></path>
</svg>
                </g>
              </g>
              <g id="shape_F8Qo5YSSt4" ref="shape_F8Qo5YSSt4" key="shape_F8Qo5YSSt4" mask="">
                <g transform="translate(-82.36394211506715,26.16606426608547) rotate(0,482.3639421150672,389.2660265555164) scale(1,1)" style="opacity: 1;mix-blend-mode: undefined;" filter="">
                  <!--普通元素-->
                  <svg xmlns="http://www.w3.org/2000/svg" version="1.1" xmlns:xlink="http://www.w3.org/1999/xlink" width="964.7278842301342" height="778.5320531110328" viewBox="0 0 963.7132334720495 777.7132334720496" data-ligature="true" data-parent="shape_F8Qo5YSSt4"><g data-role="text" data-width="314.30484" data-height="129" transform="translate(324.7041967360248, 324.3566167360248)"><path d="M78.06-69.95L83.68 0L64.66 0L64.12-21.19L62.93-38.82L61.63-38.82L50.38-6.60L34.06-6.60L24.76-38.82L23.46-38.82L21.95-23.25L20.87 0L2.81 0L9.62-69.95L34.60-69.95L36.65-60.01L42.82-34.60L44.11-34.60L50.92-59.25L53.41-69.95L78.06-69.95Z" transform="translate(0 96) " fill="#000000" stroke="#000000" stroke-width="0.18" data-glyph-w="87.14472" data-glyph-h="129.744" data-glyph-ascender="97.308" data-glyph-descender="-32.436" data-kerning="0"></path><path d="M4.65 0L5.62-20.54L4.87-49.84L25.84-51.25L24.87-22.71L25.73 0L4.65 0ZM15.68-78.71Q20.43-78.71 23.08-76.01Q25.73-73.31 25.73-68.44L25.73-68.44Q25.73-63.25 22.81-60.22Q19.89-57.20 14.81-57.20L14.81-57.20Q9.84-57.20 7.24-59.84Q4.65-62.49 4.65-67.47L4.65-67.47Q4.65-72.66 7.62-75.68Q10.60-78.71 15.68-78.71L15.68-78.71Z" transform="translate(87.14472 96) " fill="#000000" stroke="#000000" stroke-width="0.18" data-glyph-w="30.706080000000004" data-glyph-h="129.744" data-glyph-ascender="97.308" data-glyph-descender="-32.436" data-kerning="0"></path><path d="M25.84-75.90L24.87-22.71L25.73 0L4.65 0L5.62-20.54L4.87-74.49L25.84-75.90Z" transform="translate(117.8508 96) " fill="#000000" stroke="#000000" stroke-width="0.18" data-glyph-w="30.48984" data-glyph-h="129.744" data-glyph-ascender="97.308" data-glyph-descender="-32.436" data-kerning="0"></path><path d="M27.89-52.33Q37.84-52.33 43.25-48.28Q48.65-44.22 48.65-36.65L48.65-36.65Q48.65-34.49 48.22-25.19L48.22-25.19Q47.79-16.97 47.79-16.00L47.79-16.00Q47.79-14.81 48.17-14.27Q48.55-13.73 49.30-13.73L49.30-13.73Q50.06-13.73 51.14-14.06L51.14-14.06L52.44-12.97L50.60-2.16Q46.60 0.65 40.55 1.08L40.55 1.08Q37.41 0.86 34.98-1.08Q32.54-3.03 31.25-6.60L31.25-6.60L30.49-6.60Q25.73-1.08 19.68 1.19L19.68 1.19Q11.46 1.08 6.54-3.41Q1.62-7.89 1.62-15.68L1.62-15.68Q1.62-27.68 14.06-29.41L14.06-29.41L29.41-31.46L29.41-32.76Q29.41-35.57 28.27-36.76Q27.14-37.95 24.33-37.95L24.33-37.95Q18.27-37.95 8.65-32.76L8.65-32.76L7.35-33.63L5.08-46.92Q10.06-49.52 16.06-50.92Q22.06-52.33 27.89-52.33L27.89-52.33ZM29.41-22.27L23.25-21.41Q21.73-21.19 21.03-20.27Q20.33-19.35 20.33-17.52L20.33-17.52Q20.33-13.19 24.33-13.19L24.33-13.19Q26.92-13.19 29.41-14.92L29.41-14.92L29.41-22.27Z" transform="translate(148.34064 96) " fill="#000000" stroke="#000000" stroke-width="0.18" data-glyph-w="54.38436" data-glyph-h="129.744" data-glyph-ascender="97.308" data-glyph-descender="-32.436" data-kerning="0"></path><path d="M27.89-52.33Q37.84-52.33 43.25-48.28Q48.65-44.22 48.65-36.65L48.65-36.65Q48.65-34.49 48.22-25.19L48.22-25.19Q47.79-16.97 47.79-16.00L47.79-16.00Q47.79-14.81 48.17-14.27Q48.55-13.73 49.30-13.73L49.30-13.73Q50.06-13.73 51.14-14.06L51.14-14.06L52.44-12.97L50.60-2.16Q46.60 0.65 40.55 1.08L40.55 1.08Q37.41 0.86 34.98-1.08Q32.54-3.03 31.25-6.60L31.25-6.60L30.49-6.60Q25.73-1.08 19.68 1.19L19.68 1.19Q11.46 1.08 6.54-3.41Q1.62-7.89 1.62-15.68L1.62-15.68Q1.62-27.68 14.06-29.41L14.06-29.41L29.41-31.46L29.41-32.76Q29.41-35.57 28.27-36.76Q27.14-37.95 24.33-37.95L24.33-37.95Q18.27-37.95 8.65-32.76L8.65-32.76L7.35-33.63L5.08-46.92Q10.06-49.52 16.06-50.92Q22.06-52.33 27.89-52.33L27.89-52.33ZM29.41-22.27L23.25-21.41Q21.73-21.19 21.03-20.27Q20.33-19.35 20.33-17.52L20.33-17.52Q20.33-13.19 24.33-13.19L24.33-13.19Q26.92-13.19 29.41-14.92L29.41-14.92L29.41-22.27Z" transform="translate(202.72500000000002 96) " fill="#000000" stroke="#000000" stroke-width="0.18" data-glyph-w="54.38436" data-glyph-h="129.744" data-glyph-ascender="97.308" data-glyph-descender="-32.436" data-kerning="0"></path><path d="M35.57-51.79Q45.09-51.79 50.38-45.19Q55.68-38.60 55.68-26.81L55.68-26.81Q55.68-13.41 48.82-6.05Q41.95 1.30 29.52 1.30L29.52 1.30Q27.35 1.30 24.87 0.97L24.87 0.97L25.30 20.00L4.32 20.00L5.19-20.54L4.43-49.84L24.44-51.25L24.44-43.68L25.19-43.68Q29.73-49.09 35.57-51.79L35.57-51.79ZM28.33-11.68Q32.33-11.68 34.11-14.49Q35.90-17.30 35.90-23.46L35.90-23.46Q35.90-29.52 34.17-32.33Q32.44-35.14 28.65-35.14L28.65-35.14Q26.27-35.14 24.44-33.84L24.44-33.84L24.44-22.71L24.65-12.22Q26.81-11.68 28.33-11.68L28.33-11.68Z" transform="translate(257.10936000000004 96) " fill="#000000" stroke="#000000" stroke-width="0.18" data-glyph-w="57.19548" data-glyph-h="129.744" data-glyph-ascender="97.308" data-glyph-descender="-32.436" data-kerning="0"></path></g></svg>
                </g>
              </g>
    </svg>